<?xml version="1.0" encoding="UTF-8" standalone="no"?>
<!-- Created with Inkscape (http://www.inkscape.org/) -->

<svg
   xmlns:dc="http://purl.org/dc/elements/1.1/"
   xmlns:cc="http://creativecommons.org/ns#"
   xmlns:rdf="http://www.w3.org/1999/02/22-rdf-syntax-ns#"
   xmlns:svg="http://www.w3.org/2000/svg"
   xmlns="http://www.w3.org/2000/svg"
   xmlns:sodipodi="http://sodipodi.sourceforge.net/DTD/sodipodi-0.dtd"
   xmlns:inkscape="http://www.inkscape.org/namespaces/inkscape"
   id="svg2"
   version="1.1"
   inkscape:version="0.91 r13725"
   width="119.12032"
   height="120"
   xml:space="preserve"
   sodipodi:docname="Gamebus logo 120-120.svg"><metadata
     id="metadata8"><rdf:RDF><cc:Work
         rdf:about=""><dc:format>image/svg+xml</dc:format><dc:type
           rdf:resource="http://purl.org/dc/dcmitype/StillImage" /><dc:title></dc:title></cc:Work></rdf:RDF></metadata><defs
     id="defs6"><clipPath
       clipPathUnits="userSpaceOnUse"
       id="clipPath16"><path
         d="m 0,141.38 556.521,0 L 556.521,0 0,0 0,141.38 Z"
         id="path18"
         inkscape:connector-curvature="0" /></clipPath></defs><sodipodi:namedview
     pagecolor="#ffffff"
     bordercolor="#666666"
     borderopacity="1"
     objecttolerance="10"
     gridtolerance="10"
     guidetolerance="10"
     inkscape:pageopacity="0"
     inkscape:pageshadow="2"
     inkscape:window-width="2560"
     inkscape:window-height="1325"
     id="namedview4"
     showgrid="false"
     inkscape:zoom="1.3151378"
     inkscape:cx="82.892555"
     inkscape:cy="97.564879"
     inkscape:window-x="0"
     inkscape:window-y="1"
     inkscape:window-maximized="1"
     inkscape:current-layer="g10"
     fit-margin-top="0"
     fit-margin-left="0"
     fit-margin-right="0"
     fit-margin-bottom="0" /><g
     id="g10"
     inkscape:groupmode="layer"
     inkscape:label="Gamebus logo"
     transform="matrix(1.25,0,0,-1.25,-34.0761,141.78126)"><g
       id="g12"
       transform="matrix(0.90582057,0,0,0.90582057,7.0548879,6.1616902)"><g
         id="g14"
         clip-path="url(#clipPath16)"><g
           id="g20"
           transform="translate(98.8496,113.187)"><path
             d="m 0,0 c -12.108,5.946 -25.408,6.645 -37.361,2.988 3.581,0.865 7.305,1.364 11.144,1.422 2.92,0.049 5.782,-0.164 8.579,-0.594 -1.16,0.077 -2.33,0.125 -3.519,0.105 -11.55,-0.182 -22.024,-5.051 -29.989,-12.92 13.566,7.099 30.978,7.599 46.7,-0.123 0.51,-0.248 1.006,-0.512 1.505,-0.778 -2.794,-0.445 -5.512,-2.046 -7.401,-4.654 -3.563,-4.908 -2.855,-11.521 1.583,-14.766 4.437,-3.247 10.926,-1.898 14.486,3.013 2.006,2.765 2.645,6.067 2.037,9.006 10.607,-9.372 16.808,-22.269 17.262,-35.334 1.721,7.025 1.755,14.448 -0.261,21.758 -0.318,1.143 -0.691,2.256 -1.098,3.355 1.201,-2.57 2.213,-5.272 2.996,-8.096 1.332,-4.839 1.919,-9.707 1.847,-14.488 C 30.079,-29.734 19.391,-9.525 0,0"
             style="fill:#ef512b;fill-opacity:1;fill-rule:nonzero;stroke:none"
             id="path22"
             inkscape:connector-curvature="0" /></g><g
           id="g24"
           transform="translate(125.9111,77.2471)"><path
             d="M 0,0 C -0.783,2.83 -2.054,10.049 -5.62,9.065 -6.321,8.866 -5.937,7.646 -5.224,5.453 -4.806,4.164 -5.263,3.547 -4.987,2.695 c 0.198,-0.623 0.904,-0.817 0.97,-1.068 1.982,-7.78 2.153,-12.487 0.729,-19.581 -2.798,-13.951 -9.928,-22.075 -21.491,-29.078 1.181,2.299 1.527,5.127 0.748,7.948 -1.536,5.576 -6.874,8.962 -11.913,7.562 -5.04,-1.402 -7.884,-7.062 -6.344,-12.639 1.094,-3.968 4.107,-6.821 7.572,-7.636 -1.309,-0.476 -2.649,-0.916 -4.016,-1.294 -13.778,-3.831 -27.652,-2.054 -38.837,3.887 8.288,-7.937 19.148,-12.676 30.974,-12.486 1.186,0.023 2.357,0.106 3.513,0.219 -2.777,-0.518 -5.638,-0.822 -8.56,-0.87 -12.341,-0.201 -23.726,4.008 -32.683,11.18 12.573,-11.603 30.629,-16.625 48.291,-11.714 22.402,6.226 37.154,26.494 37.483,48.708 C 1.521,-9.385 1.331,-4.833 0,0"
             style="fill:#00bdd2;fill-opacity:1;fill-rule:nonzero;stroke:none"
             id="path26"
             inkscape:connector-curvature="0" /></g><g
           id="g28"
           transform="translate(83.4565,15.9575)"><path
             d="m 0,0 c -0.611,-0.063 -1.188,-0.307 -1.876,-0.273 -0.617,0.023 -2.201,1.097 -2.689,0.966 -0.751,-0.208 -0.54,-1.101 -1.022,-1.093 -0.917,0.022 -1.83,0.06 -2.731,0.14 -10.195,0.848 -19.494,5.353 -26.797,12.346 -6.419,6.149 -11.284,14.224 -13.862,23.42 2.95,-2.954 7.505,-4.426 12.205,-3.496 7.179,1.42 11.958,7.876 10.682,14.413 -1.282,6.542 -8.142,10.695 -15.322,9.28 -4.354,-0.858 -7.815,-3.566 -9.587,-7.023 -0.013,0.318 -0.026,0.633 -0.033,0.955 -0.243,15.312 4.591,28.967 14.622,37.943 3.769,3.366 17.634,11.294 28.416,11.217 0.553,-0.008 0.36,-0.741 1.4,-0.836 0.901,0.167 0.324,0.895 2.632,0.97 1.854,0.064 3.496,-0.995 3.496,0.499 0.079,3.031 -7.438,2.913 -10.358,2.867 -3.839,-0.066 -7.563,-0.996 -11.144,-1.858 -22.792,-5.482 -39.565,-26.459 -39.175,-50.963 0.258,-15.969 8.07,-29.71 19.272,-39.345 9.142,-7.867 17.16,-12.233 31.097,-13.468 5.458,-0.487 8.959,0.123 10.308,0.329 C 2.167,-2.599 2.391,0.441 0,0"
             style="fill:#0c2b4b;fill-opacity:1;fill-rule:nonzero;stroke:none"
             id="path30"
             inkscape:connector-curvature="0" /></g></g></g><text
       xml:space="preserve"
       style="font-style:normal;font-weight:normal;font-size:29.20031548px;line-height:125%;font-family:Sans;letter-spacing:0px;word-spacing:0px;fill:#000000;fill-opacity:1;stroke:none"
       x="186.09914"
       y="63.41431"
       id="text3019"
       sodipodi:linespacing="125%"
       transform="scale(1,-1)"><tspan
         sodipodi:role="line"
         id="tspan3021"
         x="186.09914"
         y="63.41431" /></text>
</g></svg>