<?xml version="1.0" encoding="utf-8"?>
<!-- Generator: Adobe Illustrator 24.0.2, SVG Export Plug-In . SVG Version: 6.00 Build 0)  -->
<svg version="1.1" id="Layer_1" xmlns="http://www.w3.org/2000/svg" xmlns:xlink="http://www.w3.org/1999/xlink" x="0px" y="0px"
	 viewBox="0 0 483.95 497.53" style="enable-background:new 0 0 483.95 497.53;" xml:space="preserve">
<style type="text/css">
	.st0{fill:#4184C5;}
	.st1{fill:#89C872;}
	.st2{fill:#DFC698;}
	.st3{fill:#4A6C7B;}
	.st4{fill:#706285;}
	.st5{fill:#D57BB2;}
	.st6{fill:#FFFFFF;}
	.st7{fill:#FDFDFE;}
	.st8{fill:#706286;}
	.st9{fill:#F48C9B;}
	.st10{fill:#EF9BB9;}
	.st11{fill:#7D5988;}
	.st12{fill:#56514C;}
	.st13{fill:#BFD961;}
	.st14{fill:#C4DE97;}
	.st15{fill:#FAE4AB;}
	.st16{fill:#716385;}
	.st17{fill:#AE9D8E;}
</style>
<g>
	<path class="st0" d="M6.98,50.66c1.25-7.65,2.2-15.28,6.6-22.12c7.39-11.5,17.43-18.79,30.97-20.92c2.39-0.38,4.76-1.54,7.29-0.77
		c1.44,0.6,2.96,0.34,4.44,0.34c66.01,0.01,132.02,0.01,198.03,0c1.48,0,3,0.26,4.44-0.35c8.99,0.37,17.41,2.67,24.74,7.99
		c12.17,8.81,19.38,20.4,19.38,35.84c0.62,1.96,0.3,3.97,0.3,5.95c0.02,83.72,0.01,167.43,0.04,251.15c0,1.8-0.46,3.66,0.44,5.4
		c6.95,0.69,6.93,0.69,6.95-5.91c0.02-5.2-0.4-10.4,2.16-15.32c4.25-8.16,11.27-11.45,19.99-12.08c15.92,0.53,31.84,0.07,47.76,0.25
		c1.81,0.02,3.65-0.33,5.42,0.34c11.9-0.64,22.17,10,22.36,23.53c0.04,3.08-0.95,7.84,0.55,8.85c2.31,1.57,6.35,0.6,9.66,0.65
		c10.67,0.16,21.45-0.94,31.9,2.1c11.31,3.28,19.34,10.47,24.31,21.17c2.35,5.05,3.42,10.26,3.09,15.79
		c0.62,1.78,0.31,3.62,0.32,5.43c0.02,27.37,0.01,54.74,0.03,82.11c0,1.81-0.32,3.65,0.33,5.42c-0.79,7.32-2.17,14.51-6.37,20.74
		c-6.43,9.54-15.11,15.74-26.75,17.31c-1.58,0.21-3.16,0.52-4.74,0.78c-1.27-0.56-2.62-0.34-3.94-0.34
		c-51.33-0.01-102.66-0.01-153.99,0c-1.32,0-2.66-0.22-3.94,0.34c-6.04,0.99-11.27-2.62-17.07-3c-4.97-0.57-9.94-0.57-14.91,0
		c-16.95,0.05-33.9,0.14-50.85,0.16c-38.89,0.02-77.79,0.01-116.68-0.01c-2.15,0-4.31-0.21-6.46-0.32
		c-7.31-0.19-14.63-0.51-21.94,0.17c-10.89-0.24-20.31-3.94-28.55-11.21c-6.07-5.36-10.18-11.81-12.7-19.34
		c-1.03-3.07-1.42-6.35-2.1-9.54c-0.32-1.88-0.1-3.78-0.16-5.67c0-126.32,0-252.63-0.02-378.94C7.31,54.62,7.65,52.61,6.98,50.66z"
		/>
	<path class="st1" d="M6.98,50.66c1.36,1.19,0.81,2.8,0.81,4.22C7.82,181.25,7.81,307.63,7.81,434c0,0.83-0.09,1.66-0.13,2.49
		c-0.24,0.45-0.48,0.44-0.7-0.01c-0.05-1.66-0.15-3.32-0.15-4.98c-0.01-125.28-0.01-250.57,0-375.85
		C6.82,53.98,6.93,52.32,6.98,50.66z"/>
	<path class="st2" d="M303.66,313.15c-1.49-1.75-0.69-3.83-0.69-5.73c-0.05-82.76-0.04-165.52-0.05-248.28
		c0-2.83-0.03-5.66-0.05-8.49c1.44,1.57,0.76,3.5,0.76,5.25C303.67,141.65,303.66,227.4,303.66,313.15z"/>
	<path class="st3" d="M258.75,6.83c-1.56,1.45-3.49,0.82-5.25,0.82c-65.47,0.03-130.94,0.03-196.41,0c-1.75,0-3.69,0.66-5.25-0.81
		c4.82-0.05,9.63-0.15,14.45-0.15c62.16-0.01,124.32-0.01,186.48,0C254.77,6.68,256.76,6.78,258.75,6.83z"/>
	<path class="st3" d="M278.76,484.3c1.56-1.47,3.49-0.81,5.25-0.81c50.46-0.04,100.91-0.04,151.37,0c1.75,0,3.69-0.66,5.25,0.81
		c-31.97,0.05-63.95,0.14-95.92,0.15C322.72,484.46,300.74,484.36,278.76,484.3z"/>
	<path class="st1" d="M478.49,445.48c-0.96-0.7-0.83-1.74-0.83-2.72c0.04-30.08,0.09-60.17,0.14-90.25c0.86,0.5,0.84,1.35,0.84,2.18
		C478.59,384.95,478.54,415.22,478.49,445.48z"/>
	<path class="st4" d="M385.94,280.42c-16.79,0.04-33.58,0.09-50.37,0.13c-0.99,0-2.01,0.08-2.8-0.71
		c17.17-0.08,34.33-0.18,51.5-0.22C384.82,279.62,385.38,280.14,385.94,280.42z"/>
	<path class="st3" d="M50.84,481.3c7.3-1.44,14.61-1.19,21.94-0.17C65.47,481.78,58.15,481.47,50.84,481.3z"/>
	<path class="st3" d="M246.77,481.3c4.97-1.37,9.94-1.37,14.91,0C256.71,481.3,251.74,481.3,246.77,481.3z"/>
	<path class="st5" d="M6.97,436.48c0.23,0.01,0.47,0.01,0.7,0.01c-0.06,1.58-0.12,3.16-0.17,4.73
		C6.53,439.73,7.01,438.07,6.97,436.48z"/>
	<path class="st6" d="M239.7,406.31c-1.66,0.05-3.33,0.15-4.99,0.15c-68.95,0.01-137.91-0.04-206.86,0.12
		c-4.68,0.01-6.07-0.93-6.06-5.89c0.16-111.58,0.12-223.16,0.12-334.75c0-2-0.05-4-0.07-5.99c1.37-1.46,3.14-0.74,4.71-0.75
		c85.77-0.04,171.54-0.04,257.32-0.01c1.61,0,3.34-0.53,4.84,0.58c-0.02,82.03-0.03,164.07-0.06,246.1c0,8.5,0.85,7.6-7.35,7.57
		c-14.62-0.06-26.36,5.62-34.67,17.68c-4.23,6.14-6.35,13.13-6.24,20.69c-0.37,16.38-0.04,32.77-0.19,49.15
		C240.18,402.75,240.7,404.61,239.7,406.31z"/>
	<path class="st6" d="M254.9,351.44c-0.5-12.09,10.05-22.3,23.85-23.08c1.28-0.51,2.63-0.31,3.95-0.31
		c51.34-0.01,102.69-0.01,154.03,0c1.32,0,2.66-0.2,3.94,0.32c13.18,1.01,22.81,10.74,22.88,23.89c0.16,30.9-0.12,61.8,0.06,92.7
		c0.09,14.67-11.76,24.19-21.99,24.66c-1.78,0.62-3.63,0.31-5.44,0.31c-37.41,0.02-74.83,0.02-112.24,0.01
		c-10.04-0.21-20.09,0.42-30.12-0.32c-0.41,0-0.81,0-1.22,0.01c-4.95,0.5-9.9,0.52-14.84-0.01c-12.56,0.24-22.22-10.99-22.87-21.16
		c0.51-1.11,0.34-2.28,0.34-3.44c0.01-30.05,0.01-60.11,0-90.16C255.24,353.73,255.4,352.55,254.9,351.44z"/>
	<path class="st6" d="M393.04,312.95c-2.06,0.95-4.25,0.48-6.37,0.49c-18.71,0.04-37.42,0.04-56.13-0.01
		c-1.74,0-3.66,0.65-5.22-0.79c-0.36-4.09,0.2-8.21-0.32-12.29c1.5-4.06,4.42-5.77,8.73-5.75c16.94,0.08,33.89,0.15,50.83-0.05
		c4.06-0.05,6.43,1.88,8.51,4.82C393.19,303.89,393.27,308.42,393.04,312.95z"/>
	<path class="st6" d="M194.78,28.78c4.32,0.71,7,3.45,7.68,7.52c0.82,4.9-3.24,6.46-6.72,8.19c-14.64-0.59-29.27-0.55-43.91-0.02
		c-4.45-1.72-5.14-5.49-4.93-9.53c0.18-3.46,2.6-4.97,5.75-5.52c12.24-0.55,24.48-0.07,36.73-0.26
		C191.18,29.14,193.03,29.53,194.78,28.78z"/>
	<path class="st6" d="M155.19,453.26c-7.95,0.6-12.95-5.58-13.11-12.73c-0.16-6.88,5.34-12.64,12.03-13.2
		c7.99-0.67,14.1,5.23,14.15,14.51C168.29,447.09,161.66,453.06,155.19,453.26z"/>
	<path class="st4" d="M288.7,59.77c-12.16-0.04-24.32-0.11-36.48-0.11c-74.64-0.01-149.28-0.01-223.91,0.01
		c-2.16,0-4.32,0.18-6.47,0.28c1.19-2.15,3.26-1.25,4.94-1.25c85.8-0.05,171.6-0.05,257.39-0.01
		C285.7,58.69,287.56,57.9,288.7,59.77z"/>
	<path class="st7" d="M115.45,44.09c-5.53-0.3-7.79-2.9-7.57-8.68c0.1-2.67,4.66-6.7,7.4-6.54c4.26,0.25,7.92,4.36,7.75,8.7
		C122.86,41.78,119.89,44.33,115.45,44.09z"/>
	<path class="st8" d="M440.67,328.37c-32.72,0.05-65.44,0.14-98.15,0.15c-21.26,0.01-42.51-0.1-63.77-0.15
		c1.56-1.46,3.49-0.8,5.25-0.8c50.48-0.04,100.96-0.04,151.43,0C437.18,327.57,439.12,326.89,440.67,328.37z"/>
	<path class="st3" d="M323.69,469.64c39.31,0,78.62,0,117.94-0.01c-0.88,1.05-2.1,0.84-3.24,0.84c-38.25-0.03-76.5-0.07-114.75-0.12
		c-0.29-0.18-0.38-0.34-0.27-0.5C323.48,469.71,323.58,469.64,323.69,469.64z"/>
	<path class="st9" d="M254.9,351.44c0.93,1.17,0.61,2.55,0.61,3.85c0.02,30.14,0.03,60.28,0.03,90.43c0,0.96,0.32,2.02-0.65,2.76
		C254.9,416.13,254.9,383.79,254.9,351.44z"/>
	<path class="st10" d="M239.7,406.31c0.06-16.39,0.1-32.77,0.21-49.16c0.01-1.78-0.51-3.64,0.48-5.34
		c0.03,17.49,0.07,34.97,0.09,52.45C240.48,405.03,240.81,405.96,239.7,406.31z"/>
	<path class="st9" d="M151.84,44.47c7.03-1.52,14.16-0.57,21.22-0.56c7.56,0.01,15.16-0.97,22.69,0.59
		C181.11,44.48,166.47,44.48,151.84,44.47z"/>
	<path class="st11" d="M194.78,28.78c-0.44,0.92-1.29,0.88-2.1,0.87c-13.34-0.07-26.68-0.16-40.02-0.23
		c1.05-1.2,2.46-0.75,3.74-0.74C169.2,28.69,181.99,28.74,194.78,28.78z"/>
	<path class="st12" d="M323.69,469.64c0,0.24-0.02,0.48-0.05,0.71c-9.05,0.04-18.1,0.08-27.14,0.11c-0.96,0-2,0.16-2.67-0.83
		C303.78,469.64,313.73,469.64,323.69,469.64z"/>
	<path class="st3" d="M277.76,469.63c4.95,0,9.9,0.01,14.84,0.01C287.65,471,282.71,471.01,277.76,469.63z"/>
	<path class="st13" d="M393.04,312.95c-0.38-4.53-0.4-9.06,0.04-13.59C393.76,303.89,393.83,308.42,393.04,312.95z"/>
	<path class="st14" d="M325.01,300.35c1.3,4.07,0.73,8.18,0.32,12.29C324.04,308.57,324.81,304.45,325.01,300.35z"/>
	<path class="st0" d="M210.31,199.27c-6.2-3.46-10.37-9.16-15.24-14.05c-5.25-5.28-10.01-5.28-14.3,0.66
		c-1.91,2.65-3.69,5.39-5.69,7.97c-1.52,1.96-3.05,2.51-4.07-0.56c-4.07-12.16-8.18-24.31-12.3-36.46c-0.48-1.4-0.98-2.81-1.62-4.14
		c-1.44-3-3.82-4.17-7.21-4.2c-3.6-0.03-5.54,2.02-6.74,4.73c-4.35,9.84-8.7,19.69-12.55,29.73c-1.72,4.48-3.67,4.33-6.92,1.98
		c-1.72-1.24-3.55-2.53-5.53-3.19c-4.97-1.65-8.02,0.19-12.28,6.88c-1.46,2.3-2.94,4.6-4.43,6.88c-0.99,1.5-2.35,2.11-4.21,2.1
		c-8.82-0.07-17.64-0.12-26.46,0.05c-2.05,0.04-2.97-0.83-3.78-2.36c-8.7-16.46-13.5-33.91-9.87-52.41
		c1.75-8.92,6.14-17.09,12.64-24.32c7.5-8.35,15.93-14.51,26.48-17.79c4.99-1.55,10.17-2.61,15.49-2.4c2.05-0.37,4.09-0.4,6.13,0.02
		c13.25,1.86,25.03,6.86,34.59,16.43c1.75,1.75,3,1.82,4.84,0.06c12.07-11.52,26.6-17.59,43.18-16.63
		c11.4,0.66,22.23,4.6,31.39,11.96c13.46,10.83,21.42,24.9,22.35,42.11c0.8,14.8-3.58,28.77-10.15,42
		c-0.74,1.49-1.52,2.95-2.28,4.42C231.29,199.59,220.79,198.62,210.31,199.27z"/>
	<path class="st0" d="M230.7,214.82c-8.61,11.15-18.17,21.39-28.63,30.86c-8.83,8.01-18,15.56-27.57,22.63
		c-4.76,3.52-9.76,6.75-14.86,9.74c-2.54,1.49-5.55,1.06-8.09-0.52c-26.53-16.46-50.37-36.04-69.85-60.63
		c-0.5-0.63-1.2-1.1-1.74-1.71c-0.52-0.58-1.41-1.09-0.87-2.08c0.49-0.91,1.45-0.62,2.22-0.62c6.16-0.03,12.37-0.48,18.47,0.1
		c6.44,0.62,10.18-2.27,13.32-7.34c4.05-6.53,4.21-6.43,10.78-2.82c9.88,5.43,13.82,4.31,17.13-6c1.82-5.65,5.88-10.23,6.89-16.16
		c0.13-0.77,0.75-1.6,1.73-1.31c1.15,0.34,1.04,1.51,1.35,2.44c3.9,11.47,7.72,22.97,11.83,34.36c2.24,6.2,7.55,7.35,12.86,3.43
		c1.9-1.4,2.59-3.45,3.86-5.16c2.16-2.9,3.86-6.14,6.02-9.04c2.15-2.89,4.26-4.74,7.36-0.37c2.21,3.12,4.92,6.1,8.56,7.98
		c1.74,0.9,3.32,1.72,5.3,1.12c6.4,0.8,12.82,0.09,19.23,0.38C227.57,214.2,229.31,213.44,230.7,214.82z"/>
	<path class="st0" d="M249.77,300.22c6.49,4.18,7.38,6.03,5.02,10.56c-1.22,2.36-2.95,3.93-5.81,3.89
		c-1.33-0.02-2.66,0.08-3.99,0.08c-59.71,0-119.42,0.01-179.12-0.02c-2.45,0-5.13,0.6-7.29-0.83c-2.3-1.52-4.54-3.21-4.06-6.71
		c0.55-3.98,2.99-5.94,6.45-7.14c60.94,0.02,121.87,0,182.81,0.02C245.78,300.07,247.78,299.91,249.77,300.22z"/>
	<path class="st0" d="M61.79,353.64c-4.66,0.93-6.27-2.16-7.05-5.75c-0.82-3.78,2.03-7.57,5.84-8.28c0.97-0.18,1.99-0.09,2.99-0.09
		c35.62,0,71.24,0.01,106.86-0.03c2.01,0,3.9,0.26,5.77,0.99c3.18,1.24,5.53,3.47,5.29,6.87c-0.26,3.74-2.27,6.54-6.71,6.28
		c-1.1,0.53-2.28,0.36-3.43,0.36c-35.37,0.01-70.75,0.01-106.12,0C64.07,354,62.89,354.17,61.79,353.64z"/>
	<path class="st9" d="M249.77,300.22c-62.11,0.02-124.21,0.03-186.32,0.04c-0.83,0-1.65-0.13-2.48-0.2
		c1.31-0.14,2.61-0.39,3.91-0.39c60.18-0.02,120.36-0.02,180.55,0.01C246.88,299.67,248.44,299.19,249.77,300.22z"/>
	<path class="st12" d="M61.79,353.64c37.66,0,75.32,0,112.98,0c-0.89,1.55-2.39,0.84-3.59,0.84c-35.27,0.04-70.54,0.04-105.81,0
		C64.17,354.49,62.67,355.19,61.79,353.64z"/>
	<path class="st15" d="M210.31,199.27c10.49-0.17,20.97-0.34,31.46-0.51c-4.29,1.75-8.77,0.55-13.15,0.69
		C222.53,199.65,216.42,199.36,210.31,199.27z"/>
	<path class="st16" d="M230.7,214.82c-6.41-0.08-12.82-0.13-19.23-0.27c-1.58-0.03-3.32,0.57-4.69-0.81
		c7.91-0.02,15.82-0.04,23.73-0.04c0.12,0,0.34,0.2,0.34,0.31C230.85,214.28,230.75,214.55,230.7,214.82z"/>
	<path class="st17" d="M117.85,98.41c-2.04-0.01-4.09-0.01-6.13-0.02C113.76,97.47,115.81,97.43,117.85,98.41z"/>
	<path class="st0" d="M307.3,399.8c-0.28-27.58,20.25-51.83,51.03-52.67c26.45-0.72,50.47,19.96,52.61,47.98
		c2.33,30.53-21.95,53.57-46.95,55.53C333.06,453.07,307.39,429.23,307.3,399.8z"/>
	<path class="st6" d="M355.99,392.54c-0.42-4.71-0.82-8.7-1.11-12.71c-0.23-3.18,0.42-5.75,4.53-5.31c3.56,0.38,4.03,2.48,3.53,5.6
		c-0.58,3.67-0.71,7.42-1.07,11.55c3.97-1.38,5.95-4.62,8.82-6.65c1.95-1.38,3.71-2.27,5.83-1.2c1.56,0.78,3.17,1.69,3.01,4.08
		c-0.18,2.59-2.2,2.89-3.82,3.96c-3.61,2.4-8.22,2.37-12.15,5.12c4.18,1.64,7.94,3.15,11.73,4.58c1.93,0.73,3.88,1.61,3.89,3.92
		c0,1.6-0.73,3.34-2.14,4.3c-2.04,1.39-4.39,0.68-5.79-0.76c-2.71-2.8-6.69-3.94-9.04-8.7c-1.07,5.54,0.91,9.43,0.6,13.5
		c-0.24,3.14-0.31,5.59-4.3,5.58c-4.4-0.01-3.96-3.05-3.67-5.86c0.36-3.45,1.46-6.84,0.57-10.84c-2.34,2.52-5.65,3.16-8.01,5.59
		c-1.55,1.61-3.99,2.74-6.29,1.54c-1.4-0.73-2.35-2.34-2.27-4.19c0.11-2.81,2.13-3.95,4.37-4.75c2.44-0.88,4.93-1.61,7.42-2.32
		c0.84-0.24,1.87-0.47,1.75-1.37c-0.08-0.6-1.01-1.43-1.67-1.56c-2.93-0.57-5.11-2.92-8.18-3.18c-2.26-0.19-3.35-1.85-3.68-3.97
		c-0.31-2,0.7-3.35,2.11-4.73c2.09-2.03,3.36-0.11,4.63,0.79C348.91,386.89,352.06,389.49,355.99,392.54z"/>
</g>
</svg>
