<svg width='200' height='200' fill="#3c85cd" xmlns="http://www.w3.org/2000/svg" xmlns:xlink="http://www.w3.org/1999/xlink" version="1.1" x="0px" y="0px" viewBox="0 0 64 64" style="enable-background:new 0 0 64 64;" xml:space="preserve"><path d="M32,41c4.4,0,9-0.2,9-3v-3.6l-5.4-3.2l-0.4-0.4c1.1-0.9,1.8-2.3,1.8-3.8v-1c0-2.8-2.2-5-5-5s-5,2.2-5,5v1  c0,1.5,0.7,2.9,1.8,3.8l-0.4,0.4L23,34.4V38C23,40.8,27.6,41,32,41z M29,26c0-1.7,1.3-3,3-3s3,1.3,3,3v1c0,1.7-1.3,3-3,3s-3-1.3-3-3  V26z M25,35.6l4.5-2.7l1.1-1.1c0.4,0.1,0.9,0.2,1.4,0.2c0.5,0,0.9-0.1,1.4-0.2l0.9,0.9l4.7,2.9V38c0,0-0.1,1-7,1s-7-1-7-1V35.6z   M33,6h-2V4h2V6z M9,20H7v-2h2V20z M57,20h-2v-2h2V20z M7,44h2v2H7V44z M58.6,40.7C59.5,37.9,60,35,60,32c0-3-0.5-5.9-1.4-8.7  C60,22.4,61,20.8,61,19c0-2.8-2.2-5-5-5c-0.8,0-1.5,0.2-2.1,0.5C49.6,9.2,43.6,5.6,36.9,4.4C36.7,1.9,34.6,0,32,0s-4.7,1.9-4.9,4.4  c-6.7,1.2-12.6,4.7-16.9,10.1C9.5,14.2,8.8,14,8,14c-2.8,0-5,2.2-5,5c0,1.8,1,3.4,2.4,4.3C4.5,26.1,4,29,4,32c0,3,0.5,5.9,1.4,8.7  C4,41.6,3,43.2,3,45c0,2.8,2.2,5,5,5c0.8,0,1.5-0.2,2.1-0.5c4.3,5.3,10.2,8.9,16.9,10.1c0.3,2.5,2.4,4.4,4.9,4.4  c2.6,0,4.7-1.9,4.9-4.4c6.7-1.2,12.6-4.7,16.9-10.1c0.7,0.3,1.4,0.5,2.1,0.5c2.8,0,5-2.2,5-5C61,43.2,60,41.6,58.6,40.7z M58,32  c0,2.8-0.5,5.5-1.3,8.1C56.5,40,56.2,40,56,40c-1.5,0-2.9,0.7-3.8,1.8l-5.7-3.1c0.9-2,1.5-4.3,1.5-6.7c0-2.4-0.5-4.7-1.5-6.7  l5.7-3.1c0.9,1.1,2.3,1.8,3.8,1.8c0.2,0,0.5,0,0.7-0.1C57.5,26.5,58,29.2,58,32z M18,32c0-7.7,6.3-14,14-14s14,6.3,14,14  s-6.3,14-14,14S18,39.7,18,32z M59,19c0,1.7-1.3,3-3,3s-3-1.3-3-3s1.3-3,3-3S59,17.3,59,19z M32,2c1.7,0,3,1.3,3,3s-1.3,3-3,3  s-3-1.3-3-3S30.3,2,32,2z M27.2,6.4c0.5,1.7,2,3.1,3.8,3.5V14h2V9.9c1.8-0.4,3.2-1.7,3.8-3.5c6.1,1.1,11.6,4.4,15.5,9.3  c-0.8,0.9-1.3,2-1.3,3.3c0,0.5,0.1,1,0.2,1.4l-5.7,3.1C42.7,19,37.7,16,32,16s-10.7,3-13.6,7.6l-5.7-3.1C12.9,20,13,19.5,13,19  c0-1.3-0.5-2.4-1.3-3.3C15.7,10.8,21.1,7.6,27.2,6.4z M8,16c1.7,0,3,1.3,3,3s-1.3,3-3,3s-3-1.3-3-3S6.3,16,8,16z M6,32  c0-2.8,0.5-5.5,1.3-8.1C7.5,24,7.8,24,8,24c1.5,0,2.9-0.7,3.8-1.8l5.7,3.1c-0.9,2-1.5,4.3-1.5,6.7c0,2.4,0.5,4.7,1.5,6.7l-5.7,3.1  C10.9,40.7,9.5,40,8,40c-0.2,0-0.5,0-0.7,0.1C6.5,37.5,6,34.8,6,32z M5,45c0-1.7,1.3-3,3-3s3,1.3,3,3s-1.3,3-3,3S5,46.7,5,45z   M32,62c-1.7,0-3-1.3-3-3s1.3-3,3-3s3,1.3,3,3S33.7,62,32,62z M36.8,57.6c-0.5-1.7-2-3.1-3.8-3.5V50h-2v4.1  c-1.8,0.4-3.2,1.7-3.8,3.5c-6.1-1.1-11.6-4.4-15.5-9.3c0.8-0.9,1.3-2,1.3-3.3c0-0.5-0.1-1-0.2-1.4l5.7-3.1C21.3,45,26.3,48,32,48  c5.7,0,10.7-3,13.6-7.6l5.7,3.1C51.1,44,51,44.5,51,45c0,1.3,0.5,2.4,1.3,3.3C48.3,53.2,42.9,56.4,36.8,57.6z M56,48  c-1.7,0-3-1.3-3-3s1.3-3,3-3s3,1.3,3,3S57.7,48,56,48z M55,44h2v2h-2V44z M31,58h2v2h-2V58z"/></svg>