<svg width='200' height='200' fill="#3c85cd" xmlns="http://www.w3.org/2000/svg" xmlns:xlink="http://www.w3.org/1999/xlink" version="1.1" x="0px" y="0px" viewBox="0 0 100 100" style="enable-background:new 0 0 100 100;" xml:space="preserve"><style type="text/css">
	.st0{fill:none;stroke:#3c85cd;stroke-width:4;stroke-miterlimit:10;}
</style><path d="M80,45c-3.4,0-6.3,2.3-7.2,5.4l-10.3-0.8c-0.1-4-1.7-7.6-4.4-10.2l8.4-10.3c1,0.5,2.2,0.9,3.5,0.9c4.1,0,7.5-3.4,7.5-7.5  S74.1,15,70,15s-7.5,3.4-7.5,7.5c0,1.8,0.6,3.4,1.7,4.7l-8.4,10.3c-2.4-1.6-5.2-2.5-8.3-2.5c-2.7,0-5.3,0.7-7.4,2L29.5,22.2  c1.9-1.8,3-4.4,3-7.2c0-5.5-4.5-10-10-10s-10,4.5-10,10c0,5.5,4.5,10,10,10c1.6,0,3.2-0.4,4.5-1.1l10.6,14.8  c-3.1,2.7-5.1,6.8-5.1,11.3c0,2.5,0.6,4.9,1.8,7l-13.6,9.1c-0.9-0.7-1.9-1.1-3.1-1.1c-2.8,0-5,2.2-5,5s2.2,5,5,5s5-2.2,5-5  c0-0.5-0.1-0.9-0.2-1.4l13.6-9.1c2.8,3.3,6.9,5.5,11.6,5.5c1.6,0,3.1-0.2,4.5-0.7l5.2,12.2c-2.8,1.8-4.7,4.9-4.7,8.5  c0,5.5,4.5,10,10,10s10-4.5,10-10c0-5.5-4.5-10-10-10c-0.9,0-1.7,0.1-2.5,0.3l-5.2-12.2c3.9-2.2,6.7-6,7.5-10.5l10.3,0.8  C73,57.1,76.2,60,80,60c4.1,0,7.5-3.4,7.5-7.5S84.1,45,80,45z"/></svg>